<?xml version="1.0" encoding="UTF-8" standalone="no"?>
<!DOCTYPE svg PUBLIC "-//W3C//DTD SVG 1.1//EN"
 "http://www.w3.org/Graphics/SVG/1.1/DTD/svg11.dtd">
<!-- Generated by graphviz version 11.0.0 (20240428.1522)
 -->
<!-- Title: G Pages: 1 -->
<svg width="748pt" height="404pt"
 viewBox="0.00 0.00 748.23 404.00" xmlns="http://www.w3.org/2000/svg" xmlns:xlink="http://www.w3.org/1999/xlink">
<g id="graph0" class="graph" transform="scale(1 1) rotate(0) translate(4 400)">
<title>G</title>
<polygon fill="white" stroke="none" points="-4,4 -4,-400 744.23,-400 744.23,4 -4,4"/>
<!-- :feature:auth -->
<g id="node1" class="node">
<title>:feature:auth</title>
<ellipse fill="none" stroke="black" cx="275.06" cy="-378" rx="57.49" ry="18"/>
<text text-anchor="middle" x="275.06" y="-372.95" font-family="Times,serif" font-size="14.00">:feature:auth</text>
</g>
<!-- :core:ui -->
<g id="node2" class="node">
<title>:core:ui</title>
<ellipse fill="none" stroke="black" cx="260.06" cy="-234" rx="39.07" ry="18"/>
<text text-anchor="middle" x="260.06" y="-228.95" font-family="Times,serif" font-size="14.00">:core:ui</text>
</g>
<!-- :feature:auth&#45;&gt;:core:ui -->
<g id="edge1" class="edge">
<title>:feature:auth&#45;&gt;:core:ui</title>
<path fill="none" stroke="black" d="M288.7,-360.5C296,-350.59 304.25,-337.34 308.06,-324 312.46,-308.62 313.82,-302.93 308.06,-288 303.71,-276.71 295.71,-266.33 287.47,-257.8"/>
<polygon fill="black" stroke="black" points="290.01,-255.39 280.37,-250.98 285.16,-260.44 290.01,-255.39"/>
</g>
<!-- :core:designsystem -->
<g id="node3" class="node">
<title>:core:designsystem</title>
<ellipse fill="none" stroke="black" cx="82.06" cy="-162" rx="82.06" ry="18"/>
<text text-anchor="middle" x="82.06" y="-156.95" font-family="Times,serif" font-size="14.00">:core:designsystem</text>
</g>
<!-- :feature:auth&#45;&gt;:core:designsystem -->
<g id="edge2" class="edge">
<title>:feature:auth&#45;&gt;:core:designsystem</title>
<path fill="none" stroke="black" d="M226.05,-368.26C197.6,-360.87 162.96,-347.56 140.06,-324 104.34,-287.25 90.42,-226.93 85.14,-191.48"/>
<polygon fill="black" stroke="black" points="88.67,-191.43 83.87,-181.99 81.73,-192.36 88.67,-191.43"/>
</g>
<!-- :core:data -->
<g id="node4" class="node">
<title>:core:data</title>
<ellipse fill="none" stroke="black" cx="378.06" cy="-234" rx="47.26" ry="18"/>
<text text-anchor="middle" x="378.06" y="-228.95" font-family="Times,serif" font-size="14.00">:core:data</text>
</g>
<!-- :feature:auth&#45;&gt;:core:data -->
<g id="edge3" class="edge">
<title>:feature:auth&#45;&gt;:core:data</title>
<path fill="none" stroke="black" d="M291.45,-360.5C301.13,-350.36 313.36,-336.9 323.06,-324 338.03,-304.1 352.74,-279.99 363.17,-261.88"/>
<polygon fill="black" stroke="black" points="366.14,-263.74 368.04,-253.31 360.06,-260.28 366.14,-263.74"/>
</g>
<!-- :feature:passcode -->
<g id="node5" class="node">
<title>:feature:passcode</title>
<ellipse fill="none" stroke="black" cx="224.06" cy="-306" rx="74.89" ry="18"/>
<text text-anchor="middle" x="224.06" y="-300.95" font-family="Times,serif" font-size="14.00">:feature:passcode</text>
</g>
<!-- :feature:auth&#45;&gt;:feature:passcode -->
<g id="edge4" class="edge">
<title>:feature:auth&#45;&gt;:feature:passcode</title>
<path fill="none" stroke="red" stroke-width="2" d="M262.71,-360.05C256.76,-351.89 249.5,-341.91 242.87,-332.82"/>
<polygon fill="red" stroke="red" stroke-width="2" points="246.79,-332.26 238.07,-326.24 241.13,-336.38 246.79,-332.26"/>
</g>
<!-- :core:ui&#45;&gt;:core:designsystem -->
<g id="edge5" class="edge">
<title>:core:ui&#45;&gt;:core:designsystem</title>
<path fill="none" stroke="black" d="M231.06,-221.6C204.07,-210.98 163.29,-194.94 131.21,-182.33"/>
<polygon fill="black" stroke="black" points="132.7,-179.15 122.11,-178.75 130.13,-185.67 132.7,-179.15"/>
</g>
<!-- :core:model -->
<g id="node6" class="node">
<title>:core:model</title>
<ellipse fill="none" stroke="black" cx="343.06" cy="-18" rx="55.45" ry="18"/>
<text text-anchor="middle" x="343.06" y="-12.95" font-family="Times,serif" font-size="14.00">:core:model</text>
</g>
<!-- :core:ui&#45;&gt;:core:model -->
<g id="edge6" class="edge">
<title>:core:ui&#45;&gt;:core:model</title>
<path fill="none" stroke="black" d="M282.93,-219.21C296.31,-209.87 312.25,-196.29 321.06,-180 343.76,-138.01 346.07,-81.18 345.02,-47.48"/>
<polygon fill="black" stroke="black" points="348.52,-47.53 344.58,-37.7 341.53,-47.84 348.52,-47.53"/>
</g>
<!-- :core:common -->
<g id="node7" class="node">
<title>:core:common</title>
<ellipse fill="none" stroke="black" cx="675.06" cy="-18" rx="65.17" ry="18"/>
<text text-anchor="middle" x="675.06" y="-12.95" font-family="Times,serif" font-size="14.00">:core:common</text>
</g>
<!-- :core:ui&#45;&gt;:core:common -->
<g id="edge7" class="edge">
<title>:core:ui&#45;&gt;:core:common</title>
<path fill="none" stroke="black" d="M292.38,-223.37C301.89,-220.74 312.34,-218.06 322.06,-216 426.72,-193.82 467.75,-234.08 560.06,-180 612.66,-149.18 647.6,-83.71 664.09,-46.45"/>
<polygon fill="black" stroke="black" points="667.12,-48.26 667.83,-37.69 660.68,-45.51 667.12,-48.26"/>
</g>
<!-- :core:analytics -->
<g id="node8" class="node">
<title>:core:analytics</title>
<ellipse fill="none" stroke="black" cx="247.06" cy="-162" rx="64.66" ry="18"/>
<text text-anchor="middle" x="247.06" y="-156.95" font-family="Times,serif" font-size="14.00">:core:analytics</text>
</g>
<!-- :core:ui&#45;&gt;:core:analytics -->
<g id="edge8" class="edge">
<title>:core:ui&#45;&gt;:core:analytics</title>
<path fill="none" stroke="black" d="M256.85,-215.7C255.48,-208.32 253.84,-199.52 252.31,-191.25"/>
<polygon fill="black" stroke="black" points="255.78,-190.79 250.51,-181.59 248.9,-192.06 255.78,-190.79"/>
</g>
<!-- :core:designsystem&#45;&gt;:core:model -->
<g id="edge9" class="edge">
<title>:core:designsystem&#45;&gt;:core:model</title>
<path fill="none" stroke="black" d="M111.75,-144.85C159.47,-118.88 253.18,-67.9 305.49,-39.44"/>
<polygon fill="black" stroke="black" points="306.94,-42.64 314.05,-34.78 303.59,-36.49 306.94,-42.64"/>
</g>
<!-- :core:data&#45;&gt;:core:model -->
<g id="edge11" class="edge">
<title>:core:data&#45;&gt;:core:model</title>
<path fill="none" stroke="black" d="M375.79,-215.56C371.86,-185.95 363.33,-124.03 354.06,-72 352.62,-63.92 350.88,-55.18 349.22,-47.18"/>
<polygon fill="black" stroke="black" points="352.69,-46.67 347.19,-37.62 345.84,-48.13 352.69,-46.67"/>
</g>
<!-- :core:data&#45;&gt;:core:common -->
<g id="edge10" class="edge">
<title>:core:data&#45;&gt;:core:common</title>
<path fill="none" stroke="black" d="M424.83,-230.48C495.22,-225.65 623.41,-212.55 654.06,-180 687.57,-144.42 685.32,-83.17 680.38,-47.35"/>
<polygon fill="black" stroke="black" points="683.88,-47.09 678.88,-37.75 676.96,-48.17 683.88,-47.09"/>
</g>
<!-- :core:network -->
<g id="node9" class="node">
<title>:core:network</title>
<ellipse fill="none" stroke="black" cx="489.06" cy="-162" rx="62.1" ry="18"/>
<text text-anchor="middle" x="489.06" y="-156.95" font-family="Times,serif" font-size="14.00">:core:network</text>
</g>
<!-- :core:data&#45;&gt;:core:network -->
<g id="edge12" class="edge">
<title>:core:data&#45;&gt;:core:network</title>
<path fill="none" stroke="red" stroke-width="2" d="M401.87,-217.98C417.21,-208.31 437.4,-195.58 454.49,-184.8"/>
<polygon fill="red" stroke="red" stroke-width="2" points="454.98,-188.63 461.57,-180.33 451.25,-182.71 454.98,-188.63"/>
</g>
<!-- :feature:passcode&#45;&gt;:core:ui -->
<g id="edge19" class="edge">
<title>:feature:passcode&#45;&gt;:core:ui</title>
<path fill="none" stroke="black" d="M232.96,-287.7C236.99,-279.87 241.84,-270.44 246.31,-261.73"/>
<polygon fill="black" stroke="black" points="249.36,-263.46 250.82,-252.97 243.13,-260.26 249.36,-263.46"/>
</g>
<!-- :feature:passcode&#45;&gt;:core:designsystem -->
<g id="edge20" class="edge">
<title>:feature:passcode&#45;&gt;:core:designsystem</title>
<path fill="none" stroke="black" d="M207.21,-288.15C182.34,-263.28 135.63,-216.57 106.85,-187.79"/>
<polygon fill="black" stroke="black" points="109.5,-185.49 99.96,-180.9 104.55,-190.44 109.5,-185.49"/>
</g>
<!-- :feature:passcode&#45;&gt;:core:data -->
<g id="edge21" class="edge">
<title>:feature:passcode&#45;&gt;:core:data</title>
<path fill="none" stroke="red" stroke-width="2" d="M257.86,-289.64C281.56,-278.86 313.35,-264.41 338.28,-253.08"/>
<polygon fill="red" stroke="red" stroke-width="2" points="338.09,-257.01 345.74,-249.69 335.19,-250.64 338.09,-257.01"/>
</g>
<!-- :core:network&#45;&gt;:core:model -->
<g id="edge14" class="edge">
<title>:core:network&#45;&gt;:core:model</title>
<path fill="none" stroke="black" d="M472.03,-144.43C446.42,-119.53 397.86,-72.3 368.18,-43.43"/>
<polygon fill="black" stroke="black" points="370.68,-40.98 361.07,-36.52 365.8,-46 370.68,-40.98"/>
</g>
<!-- :core:network&#45;&gt;:core:common -->
<g id="edge13" class="edge">
<title>:core:network&#45;&gt;:core:common</title>
<path fill="none" stroke="black" d="M519.91,-146.15C538.87,-136.42 563.24,-122.79 583.06,-108 608.74,-88.84 634.67,-63.03 652.43,-44.14"/>
<polygon fill="black" stroke="black" points="654.96,-46.57 659.19,-36.85 649.82,-41.81 654.96,-46.57"/>
</g>
<!-- :core:datastore -->
<g id="node10" class="node">
<title>:core:datastore</title>
<ellipse fill="none" stroke="black" cx="509.06" cy="-90" rx="65.17" ry="18"/>
<text text-anchor="middle" x="509.06" y="-84.95" font-family="Times,serif" font-size="14.00">:core:datastore</text>
</g>
<!-- :core:network&#45;&gt;:core:datastore -->
<g id="edge15" class="edge">
<title>:core:network&#45;&gt;:core:datastore</title>
<path fill="none" stroke="red" stroke-width="2" d="M494,-143.7C496.14,-136.24 498.68,-127.32 501.07,-118.97"/>
<polygon fill="red" stroke="red" stroke-width="2" points="503.96,-121.59 503.34,-111.01 497.23,-119.67 503.96,-121.59"/>
</g>
<!-- :core:datastore&#45;&gt;:core:model -->
<g id="edge18" class="edge">
<title>:core:datastore&#45;&gt;:core:model</title>
<path fill="none" stroke="black" d="M474.26,-74.33C448.66,-63.53 413.7,-48.79 386.31,-37.24"/>
<polygon fill="black" stroke="black" points="387.81,-34.07 377.23,-33.41 385.09,-40.52 387.81,-34.07"/>
</g>
<!-- :core:datastore&#45;&gt;:core:common -->
<g id="edge17" class="edge">
<title>:core:datastore&#45;&gt;:core:common</title>
<path fill="none" stroke="black" d="M543.86,-74.33C568.87,-63.78 602.82,-49.46 629.91,-38.04"/>
<polygon fill="black" stroke="black" points="631.06,-41.35 638.91,-34.24 628.34,-34.9 631.06,-41.35"/>
</g>
<!-- :core:datastore&#45;proto -->
<g id="node11" class="node">
<title>:core:datastore&#45;proto</title>
<ellipse fill="none" stroke="black" cx="504.06" cy="-18" rx="87.69" ry="18"/>
<text text-anchor="middle" x="504.06" y="-12.95" font-family="Times,serif" font-size="14.00">:core:datastore&#45;proto</text>
</g>
<!-- :core:datastore&#45;&gt;:core:datastore&#45;proto -->
<g id="edge16" class="edge">
<title>:core:datastore&#45;&gt;:core:datastore&#45;proto</title>
<path fill="none" stroke="red" stroke-width="2" d="M507.82,-71.7C507.3,-64.41 506.68,-55.73 506.1,-47.54"/>
<polygon fill="red" stroke="red" stroke-width="2" points="509.7,-48.85 505.5,-39.12 502.72,-49.35 509.7,-48.85"/>
</g>
</g>
</svg>
