<?xml version="1.0" encoding="UTF-8" standalone="no"?>
<!DOCTYPE svg PUBLIC "-//W3C//DTD SVG 1.1//EN"
 "http://www.w3.org/Graphics/SVG/1.1/DTD/svg11.dtd">
<!-- Generated by graphviz version 11.0.0 (20240428.1522)
 -->
<!-- Title: G Pages: 1 -->
<svg width="461pt" height="116pt"
 viewBox="0.00 0.00 461.14 116.00" xmlns="http://www.w3.org/2000/svg" xmlns:xlink="http://www.w3.org/1999/xlink">
<g id="graph0" class="graph" transform="scale(1 1) rotate(0) translate(4 112)">
<title>G</title>
<polygon fill="white" stroke="none" points="-4,4 -4,-112 457.14,-112 457.14,4 -4,4"/>
<!-- :core:datastore -->
<g id="node1" class="node">
<title>:core:datastore</title>
<ellipse fill="none" stroke="black" cx="258.69" cy="-90" rx="65.17" ry="18"/>
<text text-anchor="middle" x="258.69" y="-84.95" font-family="Times,serif" font-size="14.00">:core:datastore</text>
</g>
<!-- :core:datastore&#45;proto -->
<g id="node2" class="node">
<title>:core:datastore&#45;proto</title>
<ellipse fill="none" stroke="black" cx="87.69" cy="-18" rx="87.69" ry="18"/>
<text text-anchor="middle" x="87.69" y="-12.95" font-family="Times,serif" font-size="14.00">:core:datastore&#45;proto</text>
</g>
<!-- :core:datastore&#45;&gt;:core:datastore&#45;proto -->
<g id="edge1" class="edge">
<title>:core:datastore&#45;&gt;:core:datastore&#45;proto</title>
<path fill="none" stroke="red" stroke-width="2" d="M223.26,-74.5C198.13,-64.21 164.08,-50.27 136.4,-38.94"/>
<polygon fill="red" stroke="red" stroke-width="2" points="139.13,-36.28 128.55,-35.73 136.48,-42.75 139.13,-36.28"/>
</g>
<!-- :core:common -->
<g id="node3" class="node">
<title>:core:common</title>
<ellipse fill="none" stroke="black" cx="258.69" cy="-18" rx="65.17" ry="18"/>
<text text-anchor="middle" x="258.69" y="-12.95" font-family="Times,serif" font-size="14.00">:core:common</text>
</g>
<!-- :core:datastore&#45;&gt;:core:common -->
<g id="edge2" class="edge">
<title>:core:datastore&#45;&gt;:core:common</title>
<path fill="none" stroke="black" d="M258.69,-71.7C258.69,-64.41 258.69,-55.73 258.69,-47.54"/>
<polygon fill="black" stroke="black" points="262.19,-47.62 258.69,-37.62 255.19,-47.62 262.19,-47.62"/>
</g>
<!-- :core:model -->
<g id="node4" class="node">
<title>:core:model</title>
<ellipse fill="none" stroke="black" cx="397.69" cy="-18" rx="55.45" ry="18"/>
<text text-anchor="middle" x="397.69" y="-12.95" font-family="Times,serif" font-size="14.00">:core:model</text>
</g>
<!-- :core:datastore&#45;&gt;:core:model -->
<g id="edge3" class="edge">
<title>:core:datastore&#45;&gt;:core:model</title>
<path fill="none" stroke="black" d="M289.19,-73.64C309.61,-63.35 336.68,-49.73 358.66,-38.65"/>
<polygon fill="black" stroke="black" points="359.97,-41.91 367.33,-34.29 356.83,-35.66 359.97,-41.91"/>
</g>
</g>
</svg>
