<?xml version="1.0" encoding="UTF-8" standalone="no"?>
<!DOCTYPE svg PUBLIC "-//W3C//DTD SVG 1.1//EN"
 "http://www.w3.org/Graphics/SVG/1.1/DTD/svg11.dtd">
<!-- Generated by graphviz version 11.0.0 (20240428.1522)
 -->
<!-- Title: G Pages: 1 -->
<svg width="506pt" height="188pt"
 viewBox="0.00 0.00 505.72 188.00" xmlns="http://www.w3.org/2000/svg" xmlns:xlink="http://www.w3.org/1999/xlink">
<g id="graph0" class="graph" transform="scale(1 1) rotate(0) translate(4 184)">
<title>G</title>
<polygon fill="white" stroke="none" points="-4,4 -4,-184 501.72,-184 501.72,4 -4,4"/>
<!-- :core:ui -->
<g id="node1" class="node">
<title>:core:ui</title>
<ellipse fill="none" stroke="black" cx="238.06" cy="-162" rx="39.07" ry="18"/>
<text text-anchor="middle" x="238.06" y="-156.95" font-family="Times,serif" font-size="14.00">:core:ui</text>
</g>
<!-- :core:designsystem -->
<g id="node2" class="node">
<title>:core:designsystem</title>
<ellipse fill="none" stroke="black" cx="82.06" cy="-90" rx="82.06" ry="18"/>
<text text-anchor="middle" x="82.06" y="-84.95" font-family="Times,serif" font-size="14.00">:core:designsystem</text>
</g>
<!-- :core:ui&#45;&gt;:core:designsystem -->
<g id="edge1" class="edge">
<title>:core:ui&#45;&gt;:core:designsystem</title>
<path fill="none" stroke="red" stroke-width="2" d="M210.89,-148.81C187.92,-138.5 154.54,-123.52 127.52,-111.4"/>
<polygon fill="red" stroke="red" stroke-width="2" points="130.45,-108.88 119.89,-107.98 127.58,-115.26 130.45,-108.88"/>
</g>
<!-- :core:model -->
<g id="node3" class="node">
<title>:core:model</title>
<ellipse fill="none" stroke="black" cx="137.06" cy="-18" rx="55.45" ry="18"/>
<text text-anchor="middle" x="137.06" y="-12.95" font-family="Times,serif" font-size="14.00">:core:model</text>
</g>
<!-- :core:ui&#45;&gt;:core:model -->
<g id="edge2" class="edge">
<title>:core:ui&#45;&gt;:core:model</title>
<path fill="none" stroke="black" d="M226.28,-144.43C208.88,-119.98 176.18,-74 155.57,-45.02"/>
<polygon fill="black" stroke="black" points="158.61,-43.26 149.96,-37.14 152.9,-47.31 158.61,-43.26"/>
</g>
<!-- :core:common -->
<g id="node4" class="node">
<title>:core:common</title>
<ellipse fill="none" stroke="black" cx="285.06" cy="-90" rx="65.17" ry="18"/>
<text text-anchor="middle" x="285.06" y="-84.95" font-family="Times,serif" font-size="14.00">:core:common</text>
</g>
<!-- :core:ui&#45;&gt;:core:common -->
<g id="edge3" class="edge">
<title>:core:ui&#45;&gt;:core:common</title>
<path fill="none" stroke="black" d="M249.2,-144.41C254.62,-136.34 261.27,-126.43 267.36,-117.35"/>
<polygon fill="black" stroke="black" points="270.16,-119.47 272.83,-109.21 264.35,-115.56 270.16,-119.47"/>
</g>
<!-- :core:analytics -->
<g id="node5" class="node">
<title>:core:analytics</title>
<ellipse fill="none" stroke="black" cx="433.06" cy="-90" rx="64.66" ry="18"/>
<text text-anchor="middle" x="433.06" y="-84.95" font-family="Times,serif" font-size="14.00">:core:analytics</text>
</g>
<!-- :core:ui&#45;&gt;:core:analytics -->
<g id="edge4" class="edge">
<title>:core:ui&#45;&gt;:core:analytics</title>
<path fill="none" stroke="black" d="M268.1,-150.22C299.02,-139.12 347.7,-121.64 384.17,-108.55"/>
<polygon fill="black" stroke="black" points="384.94,-111.99 393.17,-105.32 382.57,-105.41 384.94,-111.99"/>
</g>
<!-- :core:designsystem&#45;&gt;:core:model -->
<g id="edge5" class="edge">
<title>:core:designsystem&#45;&gt;:core:model</title>
<path fill="none" stroke="red" stroke-width="2" d="M95.37,-72.05C101.79,-63.89 109.63,-53.91 116.77,-44.82"/>
<polygon fill="red" stroke="red" stroke-width="2" points="118.57,-48.19 122,-38.17 113.07,-43.87 118.57,-48.19"/>
</g>
</g>
</svg>
