<?xml version="1.0" encoding="UTF-8" standalone="no"?>
<!DOCTYPE svg PUBLIC "-//W3C//DTD SVG 1.1//EN"
 "http://www.w3.org/Graphics/SVG/1.1/DTD/svg11.dtd">
<!-- Generated by graphviz version 11.0.0 (20240428.1522)
 -->
<!-- Title: G Pages: 1 -->
<svg width="748pt" height="476pt"
 viewBox="0.00 0.00 748.23 476.00" xmlns="http://www.w3.org/2000/svg" xmlns:xlink="http://www.w3.org/1999/xlink">
<g id="graph0" class="graph" transform="scale(1 1) rotate(0) translate(4 472)">
<title>G</title>
<polygon fill="white" stroke="none" points="-4,4 -4,-472 744.23,-472 744.23,4 -4,4"/>
<!-- :mifospay -->
<g id="node1" class="node">
<title>:mifospay</title>
<ellipse fill="none" stroke="black" cx="497.17" cy="-450" rx="48.28" ry="18"/>
<text text-anchor="middle" x="497.17" y="-444.95" font-family="Times,serif" font-size="14.00">:mifospay</text>
</g>
<!-- :core:data -->
<g id="node2" class="node">
<title>:core:data</title>
<ellipse fill="none" stroke="black" cx="319.17" cy="-234" rx="47.26" ry="18"/>
<text text-anchor="middle" x="319.17" y="-228.95" font-family="Times,serif" font-size="14.00">:core:data</text>
</g>
<!-- :mifospay&#45;&gt;:core:data -->
<g id="edge1" class="edge">
<title>:mifospay&#45;&gt;:core:data</title>
<path fill="none" stroke="black" d="M466.84,-435.72C428.04,-416.96 362.18,-378.79 331.17,-324 320.83,-305.72 318.04,-282.04 317.73,-263.7"/>
<polygon fill="black" stroke="black" points="321.23,-263.8 317.82,-253.77 314.23,-263.74 321.23,-263.8"/>
</g>
<!-- :core:ui -->
<g id="node3" class="node">
<title>:core:ui</title>
<ellipse fill="none" stroke="black" cx="493.17" cy="-234" rx="39.07" ry="18"/>
<text text-anchor="middle" x="493.17" y="-228.95" font-family="Times,serif" font-size="14.00">:core:ui</text>
</g>
<!-- :mifospay&#45;&gt;:core:ui -->
<g id="edge2" class="edge">
<title>:mifospay&#45;&gt;:core:ui</title>
<path fill="none" stroke="black" d="M524.75,-434.8C539.05,-425.8 555.16,-412.7 563.17,-396 570.09,-381.57 565.63,-375.81 563.17,-360 558,-326.81 556.78,-317.2 540.17,-288 534.15,-277.42 525.76,-267.09 517.73,-258.41"/>
<polygon fill="black" stroke="black" points="520.43,-256.18 510.97,-251.42 515.4,-261.04 520.43,-256.18"/>
</g>
<!-- :core:designsystem -->
<g id="node4" class="node">
<title>:core:designsystem</title>
<ellipse fill="none" stroke="black" cx="658.17" cy="-162" rx="82.06" ry="18"/>
<text text-anchor="middle" x="658.17" y="-156.95" font-family="Times,serif" font-size="14.00">:core:designsystem</text>
</g>
<!-- :mifospay&#45;&gt;:core:designsystem -->
<g id="edge3" class="edge">
<title>:mifospay&#45;&gt;:core:designsystem</title>
<path fill="none" stroke="black" d="M526.97,-435.65C544.08,-426.64 564.76,-413.24 578.17,-396 627.09,-333.11 647.17,-238.37 654.49,-191.44"/>
<polygon fill="black" stroke="black" points="657.91,-192.22 655.9,-181.82 650.98,-191.2 657.91,-192.22"/>
</g>
<!-- :feature:auth -->
<g id="node5" class="node">
<title>:feature:auth</title>
<ellipse fill="none" stroke="black" cx="497.17" cy="-378" rx="57.49" ry="18"/>
<text text-anchor="middle" x="497.17" y="-372.95" font-family="Times,serif" font-size="14.00">:feature:auth</text>
</g>
<!-- :mifospay&#45;&gt;:feature:auth -->
<g id="edge4" class="edge">
<title>:mifospay&#45;&gt;:feature:auth</title>
<path fill="none" stroke="red" stroke-width="2" d="M497.17,-431.7C497.17,-424.41 497.17,-415.73 497.17,-407.54"/>
<polygon fill="red" stroke="red" stroke-width="2" points="500.67,-409.13 497.17,-399.13 493.67,-409.13 500.67,-409.13"/>
</g>
<!-- :feature:passcode -->
<g id="node6" class="node">
<title>:feature:passcode</title>
<ellipse fill="none" stroke="black" cx="441.17" cy="-306" rx="74.89" ry="18"/>
<text text-anchor="middle" x="441.17" y="-300.95" font-family="Times,serif" font-size="14.00">:feature:passcode</text>
</g>
<!-- :mifospay&#45;&gt;:feature:passcode -->
<g id="edge5" class="edge">
<title>:mifospay&#45;&gt;:feature:passcode</title>
<path fill="none" stroke="black" d="M469.59,-434.8C455.29,-425.8 439.18,-412.7 431.17,-396 422.08,-377.05 425.38,-353.3 430.52,-335.1"/>
<polygon fill="black" stroke="black" points="433.79,-336.35 433.49,-325.75 427.12,-334.22 433.79,-336.35"/>
</g>
<!-- :core:common -->
<g id="node7" class="node">
<title>:core:common</title>
<ellipse fill="none" stroke="black" cx="65.17" cy="-18" rx="65.17" ry="18"/>
<text text-anchor="middle" x="65.17" y="-12.95" font-family="Times,serif" font-size="14.00">:core:common</text>
</g>
<!-- :core:data&#45;&gt;:core:common -->
<g id="edge6" class="edge">
<title>:core:data&#45;&gt;:core:common</title>
<path fill="none" stroke="black" d="M273.62,-228.76C213.09,-222.14 110.92,-207.19 86.17,-180 53.35,-143.95 55.29,-83.13 60.01,-47.46"/>
<polygon fill="black" stroke="black" points="63.42,-48.3 61.44,-37.89 56.5,-47.26 63.42,-48.3"/>
</g>
<!-- :core:model -->
<g id="node8" class="node">
<title>:core:model</title>
<ellipse fill="none" stroke="black" cx="397.17" cy="-18" rx="55.45" ry="18"/>
<text text-anchor="middle" x="397.17" y="-12.95" font-family="Times,serif" font-size="14.00">:core:model</text>
</g>
<!-- :core:data&#45;&gt;:core:model -->
<g id="edge7" class="edge">
<title>:core:data&#45;&gt;:core:model</title>
<path fill="none" stroke="black" d="M325.42,-215.85C338.86,-178.99 370.59,-91.92 386.98,-46.96"/>
<polygon fill="black" stroke="black" points="390.23,-48.25 390.37,-37.65 383.66,-45.85 390.23,-48.25"/>
</g>
<!-- :core:network -->
<g id="node9" class="node">
<title>:core:network</title>
<ellipse fill="none" stroke="black" cx="251.17" cy="-162" rx="62.1" ry="18"/>
<text text-anchor="middle" x="251.17" y="-156.95" font-family="Times,serif" font-size="14.00">:core:network</text>
</g>
<!-- :core:data&#45;&gt;:core:network -->
<g id="edge8" class="edge">
<title>:core:data&#45;&gt;:core:network</title>
<path fill="none" stroke="red" stroke-width="2" d="M303.4,-216.76C295.02,-208.14 284.55,-197.36 275.19,-187.73"/>
<polygon fill="red" stroke="red" stroke-width="2" points="278.92,-186.54 269.44,-181.8 273.9,-191.42 278.92,-186.54"/>
</g>
<!-- :core:ui&#45;&gt;:core:designsystem -->
<g id="edge15" class="edge">
<title>:core:ui&#45;&gt;:core:designsystem</title>
<path fill="none" stroke="black" d="M521.16,-221.13C545.81,-210.67 582.21,-195.23 611.29,-182.89"/>
<polygon fill="black" stroke="black" points="612.41,-186.22 620.25,-179.09 609.68,-179.77 612.41,-186.22"/>
</g>
<!-- :core:ui&#45;&gt;:core:common -->
<g id="edge17" class="edge">
<title>:core:ui&#45;&gt;:core:common</title>
<path fill="none" stroke="black" d="M456.23,-227.4C376.05,-215.16 192.26,-186.58 180.17,-180 126.48,-150.79 91.87,-84.4 75.75,-46.63"/>
<polygon fill="black" stroke="black" points="79.14,-45.66 72.1,-37.75 72.66,-48.33 79.14,-45.66"/>
</g>
<!-- :core:ui&#45;&gt;:core:model -->
<g id="edge16" class="edge">
<title>:core:ui&#45;&gt;:core:model</title>
<path fill="none" stroke="black" d="M466.22,-220.72C449.87,-211.81 430.1,-198.13 419.17,-180 394.52,-139.12 392.85,-81.94 394.54,-47.87"/>
<polygon fill="black" stroke="black" points="398.03,-48.15 395.19,-37.94 391.05,-47.7 398.03,-48.15"/>
</g>
<!-- :core:analytics -->
<g id="node12" class="node">
<title>:core:analytics</title>
<ellipse fill="none" stroke="black" cx="493.17" cy="-162" rx="64.66" ry="18"/>
<text text-anchor="middle" x="493.17" y="-156.95" font-family="Times,serif" font-size="14.00">:core:analytics</text>
</g>
<!-- :core:ui&#45;&gt;:core:analytics -->
<g id="edge18" class="edge">
<title>:core:ui&#45;&gt;:core:analytics</title>
<path fill="none" stroke="black" d="M493.17,-215.7C493.17,-208.41 493.17,-199.73 493.17,-191.54"/>
<polygon fill="black" stroke="black" points="496.67,-191.62 493.17,-181.62 489.67,-191.62 496.67,-191.62"/>
</g>
<!-- :core:designsystem&#45;&gt;:core:model -->
<g id="edge19" class="edge">
<title>:core:designsystem&#45;&gt;:core:model</title>
<path fill="none" stroke="black" d="M628.48,-144.85C580.76,-118.88 487.05,-67.9 434.74,-39.44"/>
<polygon fill="black" stroke="black" points="436.64,-36.49 426.18,-34.78 433.29,-42.64 436.64,-36.49"/>
</g>
<!-- :feature:auth&#45;&gt;:core:data -->
<g id="edge22" class="edge">
<title>:feature:auth&#45;&gt;:core:data</title>
<path fill="none" stroke="black" d="M447.88,-368.46C418.38,-361.1 381.93,-347.75 357.17,-324 340.22,-307.74 330.45,-282.71 325.08,-263.32"/>
<polygon fill="black" stroke="black" points="328.53,-262.71 322.7,-253.86 321.74,-264.41 328.53,-262.71"/>
</g>
<!-- :feature:auth&#45;&gt;:core:ui -->
<g id="edge20" class="edge">
<title>:feature:auth&#45;&gt;:core:ui</title>
<path fill="none" stroke="black" d="M508.77,-360.2C514.96,-350.18 521.96,-336.93 525.17,-324 529.02,-308.47 529.46,-303.41 525.17,-288 522.51,-278.43 517.59,-268.86 512.41,-260.54"/>
<polygon fill="black" stroke="black" points="515.39,-258.71 506.91,-252.35 509.58,-262.61 515.39,-258.71"/>
</g>
<!-- :feature:auth&#45;&gt;:core:designsystem -->
<g id="edge21" class="edge">
<title>:feature:auth&#45;&gt;:core:designsystem</title>
<path fill="none" stroke="black" d="M510.94,-360.46C519.48,-350.09 530.62,-336.38 540.17,-324 576.23,-277.25 616.56,-221.42 639.5,-189.3"/>
<polygon fill="black" stroke="black" points="642.21,-191.53 645.16,-181.36 636.51,-187.47 642.21,-191.53"/>
</g>
<!-- :feature:auth&#45;&gt;:feature:passcode -->
<g id="edge23" class="edge">
<title>:feature:auth&#45;&gt;:feature:passcode</title>
<path fill="none" stroke="red" stroke-width="2" d="M483.61,-360.05C477.01,-351.8 468.93,-341.7 461.6,-332.54"/>
<polygon fill="red" stroke="red" stroke-width="2" points="465.47,-331.78 456.49,-326.15 460.01,-336.15 465.47,-331.78"/>
</g>
<!-- :feature:passcode&#45;&gt;:core:data -->
<g id="edge26" class="edge">
<title>:feature:passcode&#45;&gt;:core:data</title>
<path fill="none" stroke="red" stroke-width="2" d="M413.18,-288.94C395.73,-278.93 373.12,-265.96 354.45,-255.24"/>
<polygon fill="red" stroke="red" stroke-width="2" points="357.58,-253 347.16,-251.06 354.1,-259.07 357.58,-253"/>
</g>
<!-- :feature:passcode&#45;&gt;:core:ui -->
<g id="edge24" class="edge">
<title>:feature:passcode&#45;&gt;:core:ui</title>
<path fill="none" stroke="black" d="M453.76,-288.05C459.92,-279.77 467.45,-269.62 474.28,-260.42"/>
<polygon fill="black" stroke="black" points="477,-262.64 480.15,-252.52 471.38,-258.46 477,-262.64"/>
</g>
<!-- :feature:passcode&#45;&gt;:core:designsystem -->
<g id="edge25" class="edge">
<title>:feature:passcode&#45;&gt;:core:designsystem</title>
<path fill="none" stroke="black" d="M473.9,-289.35C493.81,-279.42 519.48,-265.86 541.17,-252 572.68,-231.85 606.46,-205.61 629.58,-186.85"/>
<polygon fill="black" stroke="black" points="631.49,-189.8 637.02,-180.76 627.06,-184.38 631.49,-189.8"/>
</g>
<!-- :core:network&#45;&gt;:core:common -->
<g id="edge9" class="edge">
<title>:core:network&#45;&gt;:core:common</title>
<path fill="none" stroke="black" d="M220.32,-146.15C201.36,-136.42 176.99,-122.79 157.17,-108 131.49,-88.84 105.56,-63.03 87.8,-44.14"/>
<polygon fill="black" stroke="black" points="90.41,-41.81 81.04,-36.85 85.27,-46.57 90.41,-41.81"/>
</g>
<!-- :core:network&#45;&gt;:core:model -->
<g id="edge10" class="edge">
<title>:core:network&#45;&gt;:core:model</title>
<path fill="none" stroke="black" d="M268.2,-144.43C293.81,-119.53 342.37,-72.3 372.05,-43.43"/>
<polygon fill="black" stroke="black" points="374.43,-46 379.16,-36.52 369.55,-40.98 374.43,-46"/>
</g>
<!-- :core:datastore -->
<g id="node10" class="node">
<title>:core:datastore</title>
<ellipse fill="none" stroke="black" cx="231.17" cy="-90" rx="65.17" ry="18"/>
<text text-anchor="middle" x="231.17" y="-84.95" font-family="Times,serif" font-size="14.00">:core:datastore</text>
</g>
<!-- :core:network&#45;&gt;:core:datastore -->
<g id="edge11" class="edge">
<title>:core:network&#45;&gt;:core:datastore</title>
<path fill="none" stroke="red" stroke-width="2" d="M246.23,-143.7C244.1,-136.24 241.55,-127.32 239.16,-118.97"/>
<polygon fill="red" stroke="red" stroke-width="2" points="243,-119.67 236.89,-111.01 236.27,-121.59 243,-119.67"/>
</g>
<!-- :core:datastore&#45;&gt;:core:common -->
<g id="edge13" class="edge">
<title>:core:datastore&#45;&gt;:core:common</title>
<path fill="none" stroke="black" d="M196.37,-74.33C171.36,-63.78 137.41,-49.46 110.32,-38.04"/>
<polygon fill="black" stroke="black" points="111.89,-34.9 101.32,-34.24 109.17,-41.35 111.89,-34.9"/>
</g>
<!-- :core:datastore&#45;&gt;:core:model -->
<g id="edge14" class="edge">
<title>:core:datastore&#45;&gt;:core:model</title>
<path fill="none" stroke="black" d="M265.97,-74.33C291.57,-63.53 326.53,-48.79 353.92,-37.24"/>
<polygon fill="black" stroke="black" points="355.14,-40.52 363,-33.41 352.42,-34.07 355.14,-40.52"/>
</g>
<!-- :core:datastore&#45;proto -->
<g id="node11" class="node">
<title>:core:datastore&#45;proto</title>
<ellipse fill="none" stroke="black" cx="236.17" cy="-18" rx="87.69" ry="18"/>
<text text-anchor="middle" x="236.17" y="-12.95" font-family="Times,serif" font-size="14.00">:core:datastore&#45;proto</text>
</g>
<!-- :core:datastore&#45;&gt;:core:datastore&#45;proto -->
<g id="edge12" class="edge">
<title>:core:datastore&#45;&gt;:core:datastore&#45;proto</title>
<path fill="none" stroke="red" stroke-width="2" d="M232.41,-71.7C232.93,-64.41 233.55,-55.73 234.13,-47.54"/>
<polygon fill="red" stroke="red" stroke-width="2" points="237.51,-49.35 234.73,-39.12 230.53,-48.85 237.51,-49.35"/>
</g>
</g>
</svg>
