<?xml version="1.0" encoding="UTF-8" standalone="no"?>
<!DOCTYPE svg PUBLIC "-//W3C//DTD SVG 1.1//EN"
 "http://www.w3.org/Graphics/SVG/1.1/DTD/svg11.dtd">
<!-- Generated by graphviz version 11.0.0 (20240428.1522)
 -->
<!-- Title: G Pages: 1 -->
<svg width="461pt" height="260pt"
 viewBox="0.00 0.00 460.62 260.00" xmlns="http://www.w3.org/2000/svg" xmlns:xlink="http://www.w3.org/1999/xlink">
<g id="graph0" class="graph" transform="scale(1 1) rotate(0) translate(4 256)">
<title>G</title>
<polygon fill="white" stroke="none" points="-4,4 -4,-256 456.62,-256 456.62,4 -4,4"/>
<!-- :core:data -->
<g id="node1" class="node">
<title>:core:data</title>
<ellipse fill="none" stroke="black" cx="236.17" cy="-234" rx="47.26" ry="18"/>
<text text-anchor="middle" x="236.17" y="-228.95" font-family="Times,serif" font-size="14.00">:core:data</text>
</g>
<!-- :core:common -->
<g id="node2" class="node">
<title>:core:common</title>
<ellipse fill="none" stroke="black" cx="65.17" cy="-18" rx="65.17" ry="18"/>
<text text-anchor="middle" x="65.17" y="-12.95" font-family="Times,serif" font-size="14.00">:core:common</text>
</g>
<!-- :core:data&#45;&gt;:core:common -->
<g id="edge1" class="edge">
<title>:core:data&#45;&gt;:core:common</title>
<path fill="none" stroke="black" d="M212.17,-218.11C197.58,-208.36 179.14,-194.73 165.17,-180 126.15,-138.85 94.35,-80.13 77.73,-46.16"/>
<polygon fill="black" stroke="black" points="81.01,-44.91 73.53,-37.41 74.7,-47.94 81.01,-44.91"/>
</g>
<!-- :core:model -->
<g id="node3" class="node">
<title>:core:model</title>
<ellipse fill="none" stroke="black" cx="397.17" cy="-18" rx="55.45" ry="18"/>
<text text-anchor="middle" x="397.17" y="-12.95" font-family="Times,serif" font-size="14.00">:core:model</text>
</g>
<!-- :core:data&#45;&gt;:core:model -->
<g id="edge2" class="edge">
<title>:core:data&#45;&gt;:core:model</title>
<path fill="none" stroke="black" d="M260.92,-218.27C275.61,-208.68 293.89,-195.15 307.17,-180 343.39,-138.67 371.49,-80.41 386.08,-46.48"/>
<polygon fill="black" stroke="black" points="389.27,-47.94 389.92,-37.37 382.82,-45.23 389.27,-47.94"/>
</g>
<!-- :core:network -->
<g id="node4" class="node">
<title>:core:network</title>
<ellipse fill="none" stroke="black" cx="236.17" cy="-162" rx="62.1" ry="18"/>
<text text-anchor="middle" x="236.17" y="-156.95" font-family="Times,serif" font-size="14.00">:core:network</text>
</g>
<!-- :core:data&#45;&gt;:core:network -->
<g id="edge3" class="edge">
<title>:core:data&#45;&gt;:core:network</title>
<path fill="none" stroke="red" stroke-width="2" d="M236.17,-215.7C236.17,-208.41 236.17,-199.73 236.17,-191.54"/>
<polygon fill="red" stroke="red" stroke-width="2" points="239.67,-193.13 236.17,-183.13 232.67,-193.13 239.67,-193.13"/>
</g>
<!-- :core:network&#45;&gt;:core:common -->
<g id="edge4" class="edge">
<title>:core:network&#45;&gt;:core:common</title>
<path fill="none" stroke="black" d="M212.3,-145C197.53,-134.83 178.36,-121.15 162.17,-108 136.78,-87.39 109.47,-62.01 90.32,-43.64"/>
<polygon fill="black" stroke="black" points="92.84,-41.21 83.22,-36.78 87.98,-46.25 92.84,-41.21"/>
</g>
<!-- :core:network&#45;&gt;:core:model -->
<g id="edge5" class="edge">
<title>:core:network&#45;&gt;:core:model</title>
<path fill="none" stroke="black" d="M260.63,-145.07C275.45,-135.04 294.46,-121.48 310.17,-108 333.56,-87.93 357.9,-62.59 374.87,-44.09"/>
<polygon fill="black" stroke="black" points="377.42,-46.48 381.55,-36.73 372.23,-41.78 377.42,-46.48"/>
</g>
<!-- :core:datastore -->
<g id="node5" class="node">
<title>:core:datastore</title>
<ellipse fill="none" stroke="black" cx="236.17" cy="-90" rx="65.17" ry="18"/>
<text text-anchor="middle" x="236.17" y="-84.95" font-family="Times,serif" font-size="14.00">:core:datastore</text>
</g>
<!-- :core:network&#45;&gt;:core:datastore -->
<g id="edge6" class="edge">
<title>:core:network&#45;&gt;:core:datastore</title>
<path fill="none" stroke="red" stroke-width="2" d="M236.17,-143.7C236.17,-136.41 236.17,-127.73 236.17,-119.54"/>
<polygon fill="red" stroke="red" stroke-width="2" points="239.67,-121.13 236.17,-111.13 232.67,-121.13 239.67,-121.13"/>
</g>
<!-- :core:datastore&#45;&gt;:core:common -->
<g id="edge8" class="edge">
<title>:core:datastore&#45;&gt;:core:common</title>
<path fill="none" stroke="black" d="M200.74,-74.5C174.72,-63.84 139.14,-49.28 110.96,-37.74"/>
<polygon fill="black" stroke="black" points="112.54,-34.61 101.96,-34.06 109.89,-41.09 112.54,-34.61"/>
</g>
<!-- :core:datastore&#45;&gt;:core:model -->
<g id="edge9" class="edge">
<title>:core:datastore&#45;&gt;:core:model</title>
<path fill="none" stroke="black" d="M269.92,-74.33C294.48,-63.65 327.91,-49.11 354.35,-37.62"/>
<polygon fill="black" stroke="black" points="355.67,-40.86 363.45,-33.66 352.88,-34.44 355.67,-40.86"/>
</g>
<!-- :core:datastore&#45;proto -->
<g id="node6" class="node">
<title>:core:datastore&#45;proto</title>
<ellipse fill="none" stroke="black" cx="236.17" cy="-18" rx="87.69" ry="18"/>
<text text-anchor="middle" x="236.17" y="-12.95" font-family="Times,serif" font-size="14.00">:core:datastore&#45;proto</text>
</g>
<!-- :core:datastore&#45;&gt;:core:datastore&#45;proto -->
<g id="edge7" class="edge">
<title>:core:datastore&#45;&gt;:core:datastore&#45;proto</title>
<path fill="none" stroke="red" stroke-width="2" d="M236.17,-71.7C236.17,-64.41 236.17,-55.73 236.17,-47.54"/>
<polygon fill="red" stroke="red" stroke-width="2" points="239.67,-49.13 236.17,-39.13 232.67,-49.13 239.67,-49.13"/>
</g>
</g>
</svg>
